<mxfile host="65bd71144e">
    <diagram id="re1jFjldWuMrOUXMRbxR" name="Page-1">
        <mxGraphModel dx="810" dy="1712" grid="1" gridSize="10" guides="1" tooltips="1" connect="1" arrows="1" fold="1" page="1" pageScale="1" pageWidth="850" pageHeight="1100" math="0" shadow="0">
            <root>
                <mxCell id="0"/>
                <mxCell id="1" parent="0"/>
                <mxCell id="3" value="Storage(Almacenamiento)" style="rounded=0;whiteSpace=wrap;html=1;fillColor=#60a917;fontColor=#ffffff;strokeColor=#2D7600;" vertex="1" parent="1">
                    <mxGeometry x="330" y="40" width="190" height="60" as="geometry"/>
                </mxCell>
                <mxCell id="4" value="" style="endArrow=classic;html=1;exitX=0.5;exitY=1;exitDx=0;exitDy=0;entryX=0.5;entryY=0;entryDx=0;entryDy=0;" edge="1" parent="1" source="3" target="7">
                    <mxGeometry width="50" height="50" relative="1" as="geometry">
                        <mxPoint x="425" y="170" as="sourcePoint"/>
                        <mxPoint x="425" y="180" as="targetPoint"/>
                    </mxGeometry>
                </mxCell>
                <mxCell id="6" value="" style="shape=image;verticalLabelPosition=bottom;labelBackgroundColor=default;verticalAlign=top;aspect=fixed;imageAspect=0;image=https://res.cloudinary.com/practicaldev/image/fetch/s--P4nkRBbe--/c_imagga_scale,f_auto,fl_progressive,h_420,q_auto,w_1000/https://dev-to-uploads.s3.amazonaws.com/uploads/articles/eywqxs6pevaaf5m1qx7f.jpg;" vertex="1" parent="1">
                    <mxGeometry x="610" y="195" width="166.97" height="70" as="geometry"/>
                </mxCell>
                <mxCell id="7" value="EBS(Alamcenamiento en bloque)" style="ellipse;whiteSpace=wrap;html=1;fillColor=#6a00ff;fontColor=#ffffff;strokeColor=#3700CC;" vertex="1" parent="1">
                    <mxGeometry x="400" y="180" width="133" height="100" as="geometry"/>
                </mxCell>
                <mxCell id="8" value="" style="endArrow=classic;html=1;entryX=0;entryY=0.5;entryDx=0;entryDy=0;exitX=1;exitY=0.5;exitDx=0;exitDy=0;" edge="1" parent="1" source="7" target="6">
                    <mxGeometry width="50" height="50" relative="1" as="geometry">
                        <mxPoint x="540" y="230" as="sourcePoint"/>
                        <mxPoint x="550" y="180" as="targetPoint"/>
                    </mxGeometry>
                </mxCell>
                <mxCell id="9" value="" style="endArrow=classic;html=1;entryX=0;entryY=0.75;entryDx=0;entryDy=0;" edge="1" parent="1" target="11">
                    <mxGeometry width="50" height="50" relative="1" as="geometry">
                        <mxPoint x="510" y="190" as="sourcePoint"/>
                        <mxPoint x="540" y="150" as="targetPoint"/>
                    </mxGeometry>
                </mxCell>
                <mxCell id="11" value="Amazon Elastic Block Store (Amazon EBS)&#10;es un servicio de almacenamiento&#10;en bloque fácil de usar&#10;escalable y de alto rendimiento&#10;diseñado para Amazon Elastic Compute Cloud (Amazon EC2)" style="text;html=1;strokeColor=none;fillColor=none;align=center;verticalAlign=middle;whiteSpace=wrap;rounded=0;" vertex="1" parent="1">
                    <mxGeometry x="598.48" y="30" width="191.52" height="130" as="geometry"/>
                </mxCell>
                <mxCell id="12" value="Es como un disco duro externo, las instancias EC2 no guardan los datos, porque cuando se apaga o se detienen se eliminan los datos, si se quiere guardar esos esos datos se tiene que conectar un ESB" style="text;html=1;strokeColor=none;fillColor=none;align=center;verticalAlign=middle;whiteSpace=wrap;rounded=0;" vertex="1" parent="1">
                    <mxGeometry x="610" y="300" width="180" height="100" as="geometry"/>
                </mxCell>
                <mxCell id="13" value="" style="endArrow=classic;html=1;" edge="1" parent="1" source="7" target="12">
                    <mxGeometry width="50" height="50" relative="1" as="geometry">
                        <mxPoint x="500" y="260" as="sourcePoint"/>
                        <mxPoint x="380" y="150" as="targetPoint"/>
                    </mxGeometry>
                </mxCell>
                <mxCell id="14" value="" style="endArrow=classic;html=1;exitX=0.5;exitY=1;exitDx=0;exitDy=0;entryX=0.5;entryY=0;entryDx=0;entryDy=0;" edge="1" parent="1" target="15">
                    <mxGeometry width="50" height="50" relative="1" as="geometry">
                        <mxPoint x="400" y="100" as="sourcePoint"/>
                        <mxPoint x="360" y="180" as="targetPoint"/>
                    </mxGeometry>
                </mxCell>
                <mxCell id="15" value="EFS(Elastic File System)" style="ellipse;whiteSpace=wrap;html=1;fillColor=#6a00ff;fontColor=#ffffff;strokeColor=#3700CC;" vertex="1" parent="1">
                    <mxGeometry x="260" y="180" width="133" height="100" as="geometry"/>
                </mxCell>
                <mxCell id="17" value="es un sistema de archivos escalable&#10;que se utiliza con los servicios &#10;en la nube de AWS y los recursos locales" style="text;html=1;strokeColor=none;fillColor=none;align=center;verticalAlign=middle;whiteSpace=wrap;rounded=0;" vertex="1" parent="1">
                    <mxGeometry x="70" y="10" width="110" height="120" as="geometry"/>
                </mxCell>
                <mxCell id="18" value="" style="endArrow=classic;html=1;entryX=0.618;entryY=1;entryDx=0;entryDy=0;entryPerimeter=0;" edge="1" parent="1" source="15" target="17">
                    <mxGeometry width="50" height="50" relative="1" as="geometry">
                        <mxPoint x="40" y="180" as="sourcePoint"/>
                        <mxPoint x="150" y="130" as="targetPoint"/>
                    </mxGeometry>
                </mxCell>
                <mxCell id="21" value="" style="edgeStyle=none;html=1;exitX=-0.015;exitY=0.44;exitDx=0;exitDy=0;exitPerimeter=0;" edge="1" parent="1" source="15">
                    <mxGeometry relative="1" as="geometry">
                        <mxPoint x="170" y="220" as="targetPoint"/>
                    </mxGeometry>
                </mxCell>
                <mxCell id="19" value="Es un servicio para almacenamiento de archivos" style="text;html=1;strokeColor=none;fillColor=none;align=center;verticalAlign=middle;whiteSpace=wrap;rounded=0;" vertex="1" parent="1">
                    <mxGeometry x="80" y="200" width="80" height="45" as="geometry"/>
                </mxCell>
                <mxCell id="26" value="" style="shape=image;verticalLabelPosition=bottom;labelBackgroundColor=default;verticalAlign=top;aspect=fixed;imageAspect=0;image=data:image/png,iVBORw0KGgoAAAANSUhEUgAAAeQAAAJ+CAIAAADt2eQWAAAgAElEQVR42uydCVgUV7r3ewWhQRGFNFEEgjEuCBg0RiFGDZpJIC7jjDOIY8Yvem+M2yR+d6KJV8VrNN7vOkYw0Ts6Y8YRSZxkEh3RaFCzgMaoURHRGBVUVAIuKDRbb9/bfaAouputoemu6v/v6aee06dOVZ06VfWvt9566xyp0WiUAAAAcG1kaAIAAIBYAwAAgFgDAADEGgAAAMQaAAAAxBoAACDWAAAAINYAAAAg1gAAALEGAAAAsQYAAIg1AAAAiDUAAACINQAAQKwBAABArAEAAECsAQAAYg0AAABiDQAAAGINAAAQawAAABBrAACAWAMAAIBYAwAAgFgDAADEGgAAAMQaAAAAxBoAACDWAAAAINYAAACxBgAAALEGAAAAsQYAAIg1AAAAiDUAAACINQAAQKwBAABArAEAAECsAQAAYg0AAABiDQAAEGsAAAAQawAAABBrAACAWAMAAIBYAwAAgFgDAADEGgAAgANQoAmax1ByWf/jV4a7hYY7V40llxvd6EKHyfs9K+/zpLRnqFSGlgQAOBCp0WhEK9jQ6LJbuu8zdBeyJJq7LZdW9fB4bqF8YDwkGwAAse4kjLVVuuPp2m//3OYlIdkAAIh156DL+6J2z7J2rULVw/OX78qDo9CYAACItQMMaoNOl/OhPQa1LTx/twV6DQCAWHe8Utd8tNBQeKID1+k5db28byzaFgAAse4wqnfO7VilZiif+TflM7PQvACA9oM4a4n2262OUGrzmv+sy/sCLQwAgFi3F/3lnI7yU9ukds8yQ9ktnGcAAIi1/Zhc1ZmrHL2V6r+9QhvCqQYAaA9uHRGsy/mwVd+8tBPNXX1+liLiFxJzELfh+g/G6nJuprRbEOJGAAAt4r4vGEk3q/7n2U7bnOfvtugvZOlOfmxjnqqHMnamIvIlqYcXzkgAAMS6EdqTu7QH/8eFKqTq4TVrp1TVHSclAMAa9/VZ68587loV0tyt2jrNqLmPkxIAALGugzTRogs9F9Hrmt1L8TYSAACxrkNfcNw1K2YoPFG7ZwXOSwAAxNos1pezXbdu+QcNLmj1AwAg1sAC7dEP0QgAAIi1xHDnqksb/tdO4dQEAECsJUYX9zN0wqc6AABBgTFNXJTK1U/VjfHYN07m9ygaBAA3x70+ijEadPr8LO13242CeoMnDezr8fyb+CodAIi1W8h0Bw4E4xTI0PacuAqfOAIAsRazUnf4QDB2Nne3IMVTSYoB8VKfnvTX8PNP+uuntDl/lVSWtXINGDAMAIg1lNqshkkb5WFPsXTtgf+nO/UPTme95u42rbDiTlXqi1x5RdwrHqP+vZn8mt3/qT9/wLSGgHCv2Rk2alhxx9SN6oPbrayhcvz/VQ6dinMXALdC5NEgbbaplV04pTYJbvSkhlU9LKlTbTKKpfKGFuwR2pCv7GKdz33h4jlhJUvoC76ven8iiTjJNFtQPvjF1u+U9uD/YAAaACDWokKX82GbvB+yR/o1/vt4g/4a9Yaff6rT5a6BDYI+6PmG5xTv7tb5xrKbzDA3rc3s+qD7B9nRZG5XZ8yvK/zE2Dbtl2kAGnzlCADEWiRmdW1VW98oygfEcw4Qa/nWX6/7VkXWO7Iuy9uvUWta5ZtsZ221ac31trP2u+2k+3VzS6/YuCu0DhJ6dPkEAMRaFGb18fS2LqIwi7W+4Huu8xBZ6DBuruHW+ToLunvvuoSqR6PWfHSQRT73LaLUq1tdoktX/iJV709kP4lO27a6au6aRroBAECshW1Wa+631ayWdgtiQRr6G6c5D7XyySkNYl2UW9dq9f5oWWDfuhuD+RWirOdjFvmc6Ouvfld3P4iexHd5Gx/cZj/O3G49tIP09ICTGACItYCxoxNUed+4OlEuPEHSSfa1hL025Hwa9QrO+aOZKU0lDXcLTWuofznJmdicZ9lwO5/zeHjN/1eDw6Sd9ySzQxwAIHpE8rl5dXV1WVnZ9evXNRoNywkpOKBuq1j3qxuS0fDzJZMEX/qaia8saKDhylGzNJreMbL3hCYXs7aamdImS/x+Ud1aSNkryzgTu0FMK8tqv/lfFsxHN4AuM7bSqmoPrOWsdfu4mPXRz0GxOI8BsEalUvXp08fPz69Lly4i2B0BizUJ9JUrV74xc/++aTSssLCwkJAQNjfccK5tq6sP2jOFfJhfCeqv/1An4o89XSfW5neMTKyl3t2ND26zRUipGzwk/n0MlWV1+fVvF+tcJdl/0Z/b5/Hi23X3gEceJ8kmq7x23zutD7K2fDIqPHb8Ojp4AcAG165dKygooET37t1HmQkPDxeucAvyOj9//jwJ9O7du9kxeP311+n+qVY3WNJGg67q3X+2TfXqoz50Px62MIqVw36r/fJPdUZ3/TtGWe9IvbbOX0xKbaysGztR2i1Icu963aouZFl6LR7crsmYR8t6PP8mE30Sbq+5u/lf37SJPpLSxYsX47IEoCmKi4vpmfvUqVOrVq0iq27ixIkkGoMGDYJYO1ymN27cSHdLavFNmzaRKW2zGOdcboMPpD5oryEuW1vNOT1Igpnxy/mgpd17S+vTJqXWVpMdbfq8pW9cg5+6XtktIHGv/kuyLHykZ8JS9krT4/n/0P3wTzveMQIAmkdt5qmnnpozZw5JxxdffLFo0SKSjnnz5glLsgUj1tTK//3f/03T3/3ud+vXr2/+WUZzt1jexvWT+cwSXWZstWF3kx1tFmvO3JYHD2nwUzO3ybVTikHPy0NiuAiQ5v3RhitHq9Je8pr/L6bXsl6D2um/BgA0D2k0SfbMmTM//fRTJtl//OMfm7L5XA0BRIPo9XoyoqmJIyMjP//88+Tk5Ja9To3Dn1tEGhDewj0t8iVOl9k34vKwp1j0CAva46SZlJcr3PCFercg77e+Z7/GjwB67Q+f1h0JXkA3AMBxkICQjJCYkKSQsJC8kMjAsm4vZWVl1Jp+fn4ffvgh3yvd0j1Ifu1ubUgPj9b6QPo8WSfFJz7Sfc/ra8nDm3W9ZHolKJUzNwWzoE2ZITEmjTYH7ZkSnNHNvajkvlTku2XM4SI2bhj1X820CdrNAbj4ALBLsklbJk+enJKSMn36dJJs0hlY1nZy/vx5as2oqKiNGze2QalNhrW68F5tG25Z9R026S9kcV+pmH6lV5gdbRLTnqF1Zeq9HMx9wTlDjHcKGj0QXD/VyII+8VHdtgaMa+R+qf/opikHd/O0aTcBABaQsJC8kMiQ1JDgQKzt4ciRI4sWLUpMTFy8eLFc3jYXtEyu8Ah5srWllV3qQqfrI6z5cBEd8idG15Vp3IMS52i2eKtpIb76+vUoY2cq4l6RBoTTz2PifzHFl9j1FY/J9G/9bgIAbD5Yy+UkMiQ1JDgkO3CDtI309PS///3v69ats/t1bdBTz1eduOilbPluJKv3gViERVtoruKJsbrsv0isPhps0GijngWEWIh43d+b5/UF38vDnqICpk9jzF/HcJj6jWr1+AMcVVoD7SYuNgDaT3JycnR0NOn1rVu3KA3LurU2dTuV2vR0M+ipry5VtOq++tjTFka0TcO5oWO8+neMdfrOi7fjum2yNrSpWE3GPFM8df0LybqNnj9QvX2WfUHWtIO0m7jMAOgQSHBIdkh8XNO+drmRYs6fP083t3YqtUlk9boPfz3wyWCvfo94tlDU20+q9JLUh0tbtZCc673apL9MmrlFtFWNLOL6fIn5+5dmG17ezqjqSz/X/HCj6vf/yJfJ8QUjAC4nQR2OfMWKFa5Tm7KysjfffPPXv/71c8891967kEzm6et38qtDPX3kPp7NurxJoGsqTD/b3UMb6+bST2K0XMRC3Ln8mhaN+nbdI4sfar8rqHx61n8GPjEEVxcAHUhgYKBUKt26dWt8fLxLfZvuQm4QvV6/ZMmS0NDQjnIY9X8+qYtfz68vaUjaxHQy0e7QTtGu0Q7i0gKgwyEJIiEiOXKp+GsXEuuPPjIFt61atarD9k2umLR+L9PrczdF0u8z7QhTato1OEAAcBBMiJgouQiu4rMuLi7+/e9/30x3H3ZT9eDe568nVpXd6eYlGxGm8vOWC/TsKavUHyvQPKgyeJmV2qubP64oABxHQUHBnDlz2vY5njtY1tQio0ePdsRH+iRqJG3dQ54gmfsivzzrYjmpnuBkmqpNladdoB2BUgPQCZAckSiRNMGytjSrHXoHM+h1Fw9kfLf1v9hfT4W0j7+yp0oR2FXRmljszqdKayh5qLuj0V2/p63R1R2jp2f9Z//nk+D9AEA00iQwsWadNNHU0RvSVlfm7fnr6Y9SLVtBIvH2cBXJrqw1WB+SIb9dEDHh/yi7eOP6AaAz2bRpU25uLk0h1nWOoc8//7zTomTIyi4rulJ8/vvr3x+6lXvUZc+SRyNH9nnqOfWgp/x6h8OaBsApVFdXT5o0yRGv04Qn1uyW1QlmdfPyrblb7CInh6qHGtIMgEsZ107XKOeLtV6vT0hIcMGPhQAAgMG+aczMzGxrj3Idi5MdtRcvXuzevTuUGgDgspBAkUyRWDm3Gk4W6zNnzowaNQpnAwDAlSGZIrFya7HOzs6OiYnBqQAAcGVIpkis3Fes9Xp9QUFBnz59cCoAAFwZkikSK+d2FeJMsS4tLZWYh9XBqQAAcGWYTDHJckexvn79ulAGgQcAuDkkViRZbirWGo0mJCTEpY4H66Y1PT29nfllZWVJSUnW4282lU85lE9z25lPNbHZr6PNfOxUB+5sRzWCSx1Bp+xUM/nOhcSKJMtNxRoAAEArceZHMXv27MnPz1+8eLFTtk5377y8vFWrVlkEutP93GbouyjzsVPYWaHkk8E+Z86cpUuXOuuzjHfffXfgwIETJkxwR8ualJp23tVuX019pCTKfOwUdlZY+U6ExIoky4kVcHIfFL6+vs7adHJyclN3dQCAq+Hn57djxw4nXrBOFCvnW9adQ1MvW1zz7g0AaNNTr2u+jYRYAwCAmyL+rjjpbmz9FhEAIA7cx5/pFpY1lBoAXOAQa9eiGQ81AMAdEKsXGz5rAAAQAGLzWcNDDYCbI1Yvtggtayg1AG6OKEUAbhAAAIBYAwAAgFgz3OcTJgBAmxBTeBgsawAAEABiiAZBl0wAAJuIKTxMJppDgvMSACBicVDgWHYORm2lofBg206yxyc5buUuUg2pb29ptzCpVw+cIQBArDtdl6vuGoq+5ecYSs7o8z50oEpW39Ue/oPzxbod1ZCFT5CpY2Q9B0G7AYBYOxxD8UndyfWGmzloijY33ZU99ONrt7zfJFnQ01KlNxoHAIh1B5nSBp3hyl7tsXckVaUt2o+OqIBU4e2gNTu6GnyBtqndiqGvywdOh60NgIDFuqkRbzvbJCy/of1itvHexUa5XgGyR0c0ciaEjJWFJ0plDmlw0jKP+FTni7Ud1YhPNVbdNT4oMNw5byg+Za3d9KRCP7oHKIa8JuvRH1cssA+9Xr906dKIiIjk5GSItTuizVlh4YyW+vdXPrNKGhjtIF0WHyTx9JOph0oiXibtppuf8f5Phhvf8BuWRLz21jHP6cfQqgCWtfBwhfBqWWC0nufiUAz/D5lvMM6qdjUpNaBvsLzPWMVTf9T/+A/dDxuZc8nkCal5IIE/BNiFCAKuFUI/AE5WlvBE6ZnN9CCvHL2W9AWXREda3EpvRcTL8oHJumOr6KbY+qAUAFxTLtxarJ0vKDKFR2K6xLMbHs8d18LK2BVoBwAgMe1WEzyYAwA64TkeTQAAABBrh4BRcQEAdiDo7pRhWQMAgAAQpM8ao+ICAOxA0N0pC9WyhlIDANxKOuAGAQAAiLWQ0V8/bCg+aTTo0BSuDx0mOl70Q1MAsYI46ybRHf9vU/dMXgEe4zeZeq4ArgrdU2sPzpFUlUr9++M7UgDL2s2u/7sX6zrSqyqVKH3QIC6N6hHWfwgdMhJutAeAWLsKnRBnrTv9AUuQsYaeOV39JPYNpsNUd+DytqNBQFMgzlpsmMYSrO9YWTH8j2gQ10f5zKq6R6Ire4xVd9EgQHwgztqW5Z67peFu1nsUzhLXRxoYLfEKYM4Qff4ORcxCtAmwBnHWztFrx61cd35H3a1s6Oti6k7PoNdd+eZfn88e8XDts9qTu4y1VeIRa5lCMWg6d/gQwwOcIh0Q685VtLsXuaEU5QOni0mmP5416uv1i2oe3lfoq7UH11X9z+iaz/9Tf+OsSC5C7mBVlRpLzuBMBiIDoXtWunb7eJ2x5t9fBN2faqsrfzr06dlPNlWV3bGeq88/SD+Jyl8ZO1MR+ZLUw0vAxrVXD1mvWDa0vC5vuweiLQHEWtzoL2TUWWoDkoQu03m7/3r6o1aMYKu5R4Y2/eQDxytifiUPjhLq2Tz09VqzWBtuHcOZDCDWYsY00nb9OOWyoOGC3pfr3x9qlVKLydBWPVKXqHdkASAaEGfdWKx1lQ1N47bh1WZDW4gebakqiEsbym/g8gYWCDrOGpZ1Y2o1aAPhGtqNQndwKIG4QJx1Y8ua84GET3DxRjDodWVFV6599+XFL3ZOfFwvCxkqf+JZeZ8npT1DOzjcsN6jrRg6VRE9URbY16UfFevfMZoOJT49BY0RdJy1UC1rt+3PWltdea/gQkHO/vxM/nfV3Q3XTtJPywQrdJi83yjjwwcdu2ndyV30kwb2VT49g9bvooZ2F4xfDMQpHXCDNLasax64eA2vf3/o6/WLWjC6C0/Qr/ZurUOaqORy7Z5lplNHCIY2AKIBYt1Y5opP1T1Nq2PQGmIwtAGAWIsbqWc3p9fh5wunjv1p3vgwg3zgeHnfOFnvwTK/R13uWQSGNgAQa7elvKQo5/2lt3KPqjxkEkm3uqgMM1pZbxjaAECshYFer1+6dGlERERycrLIjoe2uvLUjj81fnnYCEPpVVeuPwxt4Mqkp6fn5eU5tM9OiLW7cP37Q80otYDgDG2P0a/JHhsups4LAYBYtxZH92fdORj0uoKc/ef+vnp8mMEUbBccLQsaYNTcF9PpRYZ2za43JKbBAWbLB7/ogj534FYgzto5ei10mf5+25qqsjvMK82C7WiWg+LtnI722y30g6ENIB12g/6snYDmbvHX6xfZ7LNU3DBD2/iwBOcAABBrAACAWAMAAIBYAwAAEI9YO64/awCAiBF0f9awrAEAQAAgzrpxc0TMMIaMpYQUHTkJ9ITGEQRNgzhr5+i1Qx401EMlGBVbyOAIAqdIR2ec2zh4AAAAsQYAAACxBgAAiDUAAACItf0gzhoAYAeIswYAAOBYEGcNAHAXBB1nLVTLGkoNAHAr6YAbBAAAINYAAAAg1gAA4CZgKLxGGIpPGsuLJOZugGS+wWgQHEEAYFnbj+PirHV527WH/0A/Y/EpnBxCBEcQNAPirAEAADgWxFkDANwFxFk7R69x5gEA3Ec64AYBAACINQAAAIg1AABArAEAAECs2wH6swYA2AHirAEAADgWxFkDANwFxFk7R69x5gEA3Ec60JET6PSrpXuvTtnOZDR1h2A0GtEIsKwBAADAsgYuif7+TZnfow5aeW3WAsOVPZRQjn1P/vgktHZ7kEqlaARY1gAAAMQu1oizBgDYAeKsAQAAOBbEWQMA3AXEWTtHr3HmAQDcRzrgBgEAAIg1AAAAiDUAAECsAQAAQKzbAeKsAQB2gDhrAAAAjgVx1o2bI2KGMWQsJaTqGMfVv0tX/+4hT9y/9qMbnnDSwL5S7+4OPKE75QgCgSLoOGuhduTkoOaWqYdK6OdglF28J7/3r/KSostHPr/0z411ezRwvKxHiPJ2meTqn0V5nSifmS0f/KLjunDqzCMIhAv6swZtxjew95DfzIv85SxJdbncN6BOa775l8h2UxY6jGRa1muQVIaTDQCItXDv88ouZGmLcMdU/sonpyienCJVdcdRBgBiLTbCYl/wCXj09Edpt3KP2iwg7fqIRHIVpjQAEGvgVKWTKx4ZEPOLlA+rHty7+MXOa1npEonB5M7uPVje50mpXy+P77IkZxa5qCkdO1MxYBxMaQAg1nXo9fqlS5dGREQkJyeL9cB4dfNnHm25yztJ6F6iiPmVPDgKlxNwcdLT0/Py8gTaZycsa9fWQVdWamZKR74k9fDCkQIAYm1Lwty4P+tHo2IHJszIz9zeYknHebcVQ6cqoifKAvvi+hEZO3fubDFz6tSpCoVQjTzEWTtHr93zcvLq5v/0rKUx09+4/v2h3H/+2frLGpNTIuIXsqCBHqeyO9a7LQ3sq3x6hrzfKJjSYmXt2rW5ubnWAselIyMjp02bJuynVcRZg85E2cU7fNRL9Lt37cdLX/6jovig36jpiv5jpT1DHRGDAVPaTZg9e/b8+fObL4BWglgDe/APeYIMbYlkqSNWTqa0x+jXZH2ehCntJvzmN79pXqypAFoJYg1cyXLvlE/DgasREBAQGRlp7Qlh0CwqgFaCWLsEhuKTxvIiibkbIJlvsLvtfp0p/dhw4X7P4uZHsP004wmBD8S5oD/rRujytmsP/4F+xuJTQj+04aNe+vX/Hh7y2wVefj1bKKryJ1Paa+EXXrPS5X1jBf3loZiOoFNoxtEhAh+IoPuzhmUtZlhfUVG/erX00lmbn7Dj03BgQVOeEPhAINb24M5x1vY8PVl9wl5rlHo/83tlzK/xaTiwxqYnRBw+EMRZO0evcVG1FQF9wg6ciM2YkMTERHHsnXClA8N6uR1QatA8AQEBarWan0N/Q0ND0TIQa9AkOp1OamblypVoDdBpzJkzp5m/AGINLDl48CBLbNq0iYQbDQI6h8mTJzfzF0CsgSVLliyhJ9D09PTi4uLjx4/zZ5WWlhYWFjLrOycnh6U5e5xybNrp586do1l83ad0oS0s7g20Oet1cnVgaVo5Dpk4GDx4MOcJoQT9RZtArO3BcXHWLgXpYG5uLj2BTpw4kf6uWLGCP3fhwoVhYWH79u1TKpVxcXGUjoqKIoWlnODgYMoJCgriyyuVp5KRkZE0ixLjxo1jclxUVBRmC8pnUk4rpMKBgYFsnRs3btRoNPw6UJmVK1dSAVo51QGSLTJPiJh8IIKOs4Zl7bqsX7+ePYGqVKoFCxZkZWWR9WpRJiEhgc4/0vSkpCSaxsTE0FIHDx5kxjin7ySgqampVKakpKSgoICtjZnqvXv3LuCRmZnJjCkWVLtr1y7aRF5eHtvKmDFj5s+fbxHFRfcGmtKyrMwbb7yBYycmTwh8IK6C0XmsWbPm8OHD9i1L1pwjqlTz5fyqzSH00136zOhUKioqJOYvEdjf7Oxs+puSksIVIOWlnLS0NPaX+4qBKxAfH09/tVotW5yUlJSazaIEzaICFhulwrRFprwshz0LU2UstmuzDlx5tlGn4DpHUASozYhsp+yWDhIrkiwn1lyolrXo46x3795N0zfffJP9jY2NpcvG+jXjs88+yxK+vr40ZerJYKYx82bQ4lOnTtVoNIWFhfv27fvyyy8pk4xri43OmDGDRJ+May5Oi8xz2i6Z9lyZkSNHMlPdug4Emd7cRoEIPCHiiwNBf9agg1m7di1Nt23btnfvXi6TvWYk5eVymEZzNPXlAmnr+PHjaXH2l5nPFqxcuTIjI4OM9xdffJFzmnP6y+Hv789WyL10wtsn0XtCAMQaSJrSVubWsDZ+V6xYwexim5Cy2xzIY/r06aTU8fHxbNnS0tLAwEB+gZycnOXLl1OBZcuWcZnMvj5//nzztSVNxxcTIsOg0/345b4jq5c9ExigWbjYO3a0FN8MOxu8YHRFtm7dSlPSawunFVnENl8zNg+VZ9K/f/9+lnPixAmLAnFxcWq1mivAsWDBAlqW73thlj6saRHL9IX9e/73hbh9b7+h1VR4amvvbFhT9G+/1XxzyCjMIAqINXAUGo0mNTXVZnDrmjVrJOYPZNq0Qu7r4dWrVzMjesmSJZzrgzZH9wAqQKJsPRDq888/T9NFixZRMRbGd+TIESo8YMAAHCkRy3Tl3TuNZpXdh2RDrO1B3HHW27Zto+nbb79tPWv8+PESu75mZK+Jli9fHhQUREb0lClTWOtRDlnxxWYCAwOlPJg75dlnn01JSaGbh4+PT3BwcEJCAhU7ePCgcMe3Bm2SaZFJNvqzBh3JkCFD6JRiH8JYHi2FIjs7+9q1azU1NXPnzk1MTOS6GKYELRUSEsIV5hdYtmzZ5MmTP/vsM39/f9Jfstk5uY+OjrZ522OrUqlUtCxZ1rt37758+fKMGTP47mmLOtjMAS4u0z9+ue+rP61uRqNtSrbsb5v9X34VvuzORGo0Gp217XfffXf48OEWwQatN64dEYJTm7XAcGUPJZRj35M/Pgnnh+DAEexYmX6hdy+VUtnkg7lfd8FJtt3SceTIkePHjy9evBiWddtAf9YAdJo1LSYrG3HWAABh8L8vxLVfpm1KdvBf/oHmdRyIBgHAvehYpeZLNtoWYg0AABBrAAAAEGtH4Cb9WQMAOhb0Zw0AAMCxCDIaRC6Xr1q1yhEhOIqIGcaQsZSQqmME1CA7d+5salZISAi/lz6JuSeQEydOHDhwYPjw4SNHjuzdu7f154jnzp377LPP+vbt21QB1z2hhXkEQeeQnJzsoE80INbN6bVDHjTUQyX0E+Ap2NSspKQkTqx1Ot0LL7xg3ZNfZmYm1y2qRWeqEnNfThs2bBDMo6IwjyAQunR0xrmNgycaCmzB6SwZ1DExMaTUkZGRpM5arbakpIQSarU6ISGBG0yAdabKOvyjAvHx8ampqRhWEQBY1qDDaL5T6WnTppEEp6WlzZs3j+UEBASQQf3JJ5/ExcWtWbNm586dbLSBlJQU1uEfFVixYoW1JQ4AgFgDh6DT6Zjmzpw502JWbGwsWdnMK01yf/bsWf7cBw8eSKzGowEAQKyB/TC72AL2epANihgZGckfTbHhJGj6/eH69eu5kc4BABDrtqHX65cuXRoREdHMizU3JCwszDqzoKCA7OWjR/n6+G0AACAASURBVI9Sevbs2W1aYU5ODtnjmZmZNiUeAMGRnp6el5fnoFgyiDVow4loncmMYtY59U8//dT6tW3cuHH+/Pn88XMBABDrtuG4OGtBY3OoXEavXr1ompqa2pogPJ1Ot2jRIipM6t/MOgEQHIKOsxZq6B6Uuk2EhoayYRhtBuGNGzdu586dbOwYjUbzwgsvkFJnZ2dDqYH4QJw1cHXWrVtH0zfeeCMnJ4efv3LlyqysrL1797LXjG+99RbzU1t89wgAcC7wWYuHpj46Zwby1KlTt23blmUmMjJy9uzZ9+7d+/TTT3Nzc+Pj47dv3y4xO0DYwOplZWUWa4OV7VZoDYa71bqHWl1x1bWBfl2HBXT3bXpwLwCxBm2jqdgYprNkOO/fv3/z5s3z588ngaapxBzMl5aW9pvf/IaZ1cePH6dpcXGx9aog1u5AuVb/sFZXVqvT14/MWl1VU1JV+tXtUm+FfHD3bv39fMO7+qChINbOx1B80lhuCkmWqmNkvsFCqXZBQUGrDrZCMc+MRqMpLS0NCAiwiMmLjo5u5apwBMXEnWotyXSFVt/M4NmVOv3x0nv0U8qkoT6qqB7dIv390HQQ6xZwXJy1Lm87Nza2RDiXevMfmlujMtP6fAEh0CPoREdHdXMSbXNB408PK+j3z4KbvVVej3X1EZCTBHHWAADB4BvxZH7+hfv32j20uURyXVNFv69ul0YOGDDqqWEhaFyItQWIswbAbv5t+y6a1lRWXsvPy8/59uT+zBsXL9ixnoGxzzw5/hf9h494tO/jcoH0eI7+rJ2j17jqALAbT2/vfkOfot+khYv0Ot2tyz9dPH7s8qkT3+35vJmlnp4wKXrsuL4xwwKChepiEq50wA0CgLtDdnFw/wH0G/fy/5mTuqn0xg1S7TOHv7xwzBSS/1TChMGjRodFRXft0RNtBbEGALgKZDXTb8SkX6IpXAp8wQgAABBrAAAAbivWer1+yZIlNnsEBQCApiDRIOkgARFi5eGzBgA08OBW0d2rl3/OP1f0w4nr3x/9VVhol8gnPQcM9gzvpwwOUQSq0UQQ6zaAOGsAHKTO1gWqc3+gH/dX0NqNOGvn6DUuMwAcoc7NI3TtRpy12DDWPHDKdvldLLE0G/G2NUs1VZI/l5+mBP1tzfqBCDj25zT71NkO7fab+js0eIeDaJDGzaGOYQlD8anWlC8sLJxmhg2z0n52794dFhZGUy7NBiZvzVJNleTP5acXLlzYyvU3w8aNG6c1Ad0McEa5Dkc3b+hwpbap3Q8+/htaG5a1w5F6dmtT+fXr12dkZFBi+vTpHTKw7MiRI9PT02nagTvF1slGzuUzd+7cxMRElk8mto+PDxsKvW0ScPQoawFrVq9ebb1R0OEYdLrykuJbZ3+4fe5M1+KbIb2CvYeNkKl8lMEhUs8u8m7O7Mj0wS2TKUB1q35QRtPuCvkTfUK7PDHQs/8geY8AKZyZEOtOc1mkpqYmJSWRWi1ZsqRDxDrUTMfWs6l1xpph6atXr9q38p1m+Dn79u1LSEiIj4/v8B0BfBFk6nzj1PE7P/3I5T8V0LPy2pXKo181el70694lIrozq5e55A8XD+y1zg9WqXoFBlR8sZv9VYaEdRkU7fl4f2i3aN0gjouzlvr2rrNWzH0it+h8YPZpSkpKbm5uYWEhy8/JyZk2bZrFUIckYVxmaWnpxo0bx40bJ5VKKZNmcV4Um8tyLpeVK1dGRUXRUgsXLuQvxSgvL6f8oKAgKsNfA1untVOCeTBYZejJgHJmz55NOVy+dWG6PzXfJrQUKbVard6/fz+XSfWk2tL+Ut1oPfyVsNVyDiWqOUk/vwAtS/Xn2qqpocsazMz6Ayf17y++y/XYn9P+8eqMdU/23Zo4et/bb5z+aDtfqZtsk7L7ldlHOrOeNpXaGu21gvJ9n93ZsObmnOnXpz5/45Vfl65/x6EVE3ScNXzWjVE9wiWNhhbc0GvXrqXp8OHDJ0+eTAk2jCHRr18/srVXrFjBL0ynCGVGR5sMHBKd+fPnDxw4MC0t7fz586RumzdvZsWuXbtGxWhqsS3SrIkTJy5fvnzKlCm01K5du2ipgwcP8suMHz+eLP2pU6eWlJTExcWR8PHXaa2zzINB+UOGDBk0aBDlPPPMM4mJifSX8jdt2sTfOlWYqtr80ARULDIy0qQpx45xLy1JhZVKJdWWajVnzhxaj4+PD2k0vw50ExoxYkT//iZ5TU5OZmP7MukPDg6mfaGK0V4fOXKE5nLLtoCHSnynZ+f4nZ3mz+n0mwrE2uGwOOsOHybGZI6pghrEWnO7mZJk7pE1TTY1qdLgwYNJpEhJmakbEBBAf7Oysjh9JNFh49KS2JF40aykpKQNGzbMmzfv7NmzVOCdd1owKC5cuMA2t2zZMlrq9u3b7AbALxMYGFhRUUGrvXHjxoIFC/jGfvPExsaSRlNixowZdCOh2w+l+WLNxmZ88803m18PLV5cXEzGC98B8tZbbzGLhvaUKk81pMbZsmVLI0Ps4kWqM81lrcFt+uOPP6YVZmdns72mMrQsyX1Tr3MN5TcaDqXCG5c3sIBEQ7ifaAjVsnZQc0tlPCe+5udmSr7//vtMnthfJmScqbtmzRqafv3115zo0JTZ2iRkRqOR/zhPwk2S1Lyw0v2AliLN4nJItkiO+WXI6GaWL90/yL6mRH5+vh2NQIvTXYGqdO7cOf7OkmnfzFJk8JKNTPtiMbQue/3IZVINR48eTTXnu1nmzp3LWeL81ti9e7dareYc61Rm9uzZ7NZlsw5GLobHK0Dq1QPaBDpNOiDWzmiR8Aksob/SpN+NTGbSINIR9phPhISE8E3dZ599VmKOFWF/mSHJLFZJvf+aeZ+JpqIpLCB95y9lodTE0KFDuXSvXr1oeuDAAfsagd2Etm7dyu0smerN+EBI1sngpfsH5wviHiloSo8U/EzWDidOnOBymHfIupHpEYSEW8qDDcrO3UUs0F87XHdBhifgTAYiA9EgVjfefpPYSyp93oeKEUsb2dr1bNu2jaakI2FhYfx85nkg25l0jUWJkOJUVlZyDhNJfbAEJShnx44dvr6+ZLFaK6+13cp0Ki0tje4EtNSIESOoAvwy3bpZxh3aHelMu0DKm5qaum7dOvZ8MGvWrKYK01bGjx9PCdJWi+9rvL2b9EWUlZVxaZu3AWo3mtIdkXNhczQV2si9XZQFj8KZDCDWYresg55ueKwuOSNVD7Uuw1zMpLAkmlzm0aNHk5OTybRkzgp6tCexJqVjUXHsJSRBAs2UmhXT6XQtKjVnm5NSz5s3j1mdFkpNnD59mvMY3Lx5k6bslZ19rFmzhm4qx48fp+cDUszBgwfbLEb1J3ufKpOZmWkdVU0qTGY1iTg/8/LlyzT18/PjG9HWes3WRmueOnVqa76xNNy92HAQA6JwJgOxSROawAKp0lvWK7YZT0hOTg4pyIIFC0i/QnmQppCoca8Z2cP+gQMHSGfJSuXEjlm7zz33HPvLublb418eMmQIS7CoQVYZbi5lcm/eDh06ZOEYaQ1M4hnMWH7ttddIat9+++2mFlm9ejUVoNZoKsycebo5xwXV8Ntvv6XEsGHDWnwCYP4T9nqTafrChQstgv8abhunP6g7gv794bAGEGuXwNH9WcsjX6nbUN6HRm2lxVz2ts3aLUDW35w5czj9Za/pUlNTyXBmr8UYr7/+Ok3j4uJIdKKiosh6JaWjHEo05YqVmCOg+UstWrSIVs5yuKXy8vKCg4NZAbpn0J2DCW5rYI4FkmYuzJnVn1n9M2fObMoBQhtidxrrz81ZjB2LM6HbFeWsXLmSasjEvTUfN7LnCdpHtjYfHx9qz59++snaDDeU3+B8IIroV3FhA5ugP2sxe0L0uVsUMQv58pSRkcG3lPmQWJN4cV8zTp48mWkZX+xIQEkEN23aNH/+fLIcSQ3ZqmjNN27caKpKtIZ79+6xpZKSknbs2DFgwICLF00P/txSn3zyCd1IqADJNJ2UrfQeMOjJgGpFtU1OTi4oKGBqyOpPm2vq1SJn4Vo4OjjmzZtHa9Zqtbt27Vq7di01HW1lxowZrfy4kS1LNz8WpU7NPmXKFBYLaCnWl/5Zl/IKkIUn4hwGInzoNxqNztr2u+++O3z48DFjxthnXDs0BEd3aoPuZF0sh8e0b2W+wR2/CZ3Oju7uWrOUfWu2hgxhEuvs7GzOFe6UXW5xWXr6qfnrQJZWjn1P/vgksV6u657s23yBpwJ69vHxsTnrk4JCO7b4q7BQO5ZqalvBKtXwwBaeqEI+zXL0c7l90nHkyJHjx48vXrwYbpA2eiocHCwpHzKXbDRmqUlqNQ55qLFLtlqzVPuVmkzmnJwcUmoyZrmIQ2ftcsvL6qq4j8tloeMlADhPOuAG6fQnDplCOXqtpOYhPVPbjN4TMYWFhSwkUa1WW0fjueLB8urhMWWvPt/0DkOqxIeLQJxArJu+A/cZ6547HhAQkJ6eHhISEh0d3XxnIC51c1VEvIyTFkCsgRtBAm3xyTgAwOkgzhoAACDWjsHRcdYAAFGC/qwBAAA4FkH6rFl/1nIMAgQAaAvJycmO/kQDlrUNvcaZBwBwH+mAGwQAAAQAQvfai7HqrkThhW8xHIdpsK5ajaxHfzTFoh8uG3S68pKG3nErSn5+eLuhr0TZ9cKeAwZZWmQqH2VwiOQXcZ1Wz1l7v7p19gfrfOm9Oz2DQ7i/ypAwmVfDhaMIVOMQQ6wdptQGXe3eZOO9i4qhr8v6/dIRXYi4dfNqK/W5W0ydtHgFeE4/5m6fktp+FlYouj3am/tL6V7RMa0Uepo+uFXEz7SQ1KvfHOb/ZYOUe8c16r3HO+Zp/l/P/o3uDZzg8isJINbOR5+fTkpNCZOgnFwvC5+gGPIabMD23wKNJWf0V/bq8z6sy6oqNVzZK+IemjoNCw21+DvghQn8vwlr3kOLQazbJ5F6/dKlSyMiIhwxwHm7Htiv7Kk196pMqi0PGStVx8DWboNAa25LND830mgOrwCJZ1e0Emgn6enpeXl5Ao0lg2XdvuaLeFn+xK8NhQe1x94h64+v2lxf+BLeILwydYzUs1srV956Q9KoraQ6OGgfHVQNY80DQ/1g5Py2stHIQ1+XD5kLHwiAZS08XCrOWqr0JjmThSfSc7ruzGbmFbG2uFujSvarZPVd7eE/OF+sO7Qasl6x8shXZEFPu/nLW0NNtaT+iztDVZWxqq7DXkNFhaGivK7la6v1pSUNV3WvPqYz09NT3t3f1JJdu0kVSlPCuzO65TJUmmpo1GkNDx+YnoPv3zPW1FBCd/N6w0kVECj16FJ3oH18ZfV9cEu9VDIvL+46l3l26di6CTrOWqjWiqs1N9l9JGr0M1bdNZSeNdz4Rn8lk29rg9ZqdPgEeb9JbqjRZ9//k6e3d/egXl6+vtI7Je1ZFSeLWou7qcFASmoSR5Wv9uZ1WTc/n/GJ8vYpeF76X/VlZerwxw2acmNFua9f99Ysxb+1tPaSD1BT5XV3Sow11V2nJMubGGNBcNIBN4jzVNurh7zPWPopY1eQcBt1lZJaDTO3+Q/+HbxRhTfnaXHmvrexGpxTSOrbW6J6RKoKcmdfR9ZfPuD/7RUW3kWlCunX36OLV/eAwC7eKqWHR3P2bHWV0TxcMikaGd2mRPkD/YMyZpvreOF9fFQjn5XwxJrWYKytMS/70Kit5T0+esh8Te8MpB6e0sb9mx9Yt9rmmln9KfFIcEgXs7Hs081P1dV0uFvcF6NWS3XWl9031tZqi65Z19/3hYkSe8UabhBgW7ilEvMw21x8iGP6XDb1vh+f6gr76wrVEAc3C67Q9EperoUCent7j3xyGElYne1cfMtYXdWGG6TKh4kv85DUFlzWXi+08FG0SjjqPS19I6IoUf6gTGN2elSYbw9c/a13gY+XyufRsMdMCW9VYO/gnndKZDptU/cVALEGQEgK7q1QaCrLm76gFczPy+KdyRBWBD5CCaX6Uf7nJw3uiOJb7fS0jJ3yG+u5lRXltwquUuLnG9dqqkz3kuIbpruLTqutrmwYJK9KU9Eg5d8fe6F3L5VSiaMMsQZA/BTpjd/l5ZlcECUldS6U7j26eKtkzbodOhxvH9/w/gMNNdV9unevc2V09SGT+Y5U9tXVqzhMbiTWLhtnDYBzMZQ/kDThQgmPiGTeBuY7VnXtKpN1zKs29t6S+cpNLwCrq2oLr9gsWVn+0LntgzhrAICrU6fd3x+zUHC/ngHd/Hv4B6qVnp6tieXQV5QbtVr9/XvsBWZTugwg1ibQnzUAHangPNhLP6bgpkAOmcxwp5TpcltfZrogiLN2jl7jSgOgw2n00k8iEd9LP/RnDQAAAGINAAAQawAAABBrAAAAbinWer1+yZIl6enpOH4AgNZDokHSoa/vxRBiDQAAoINBnDUAwF0QdJy1UC1rKDUAwK2kA24QAACAWAMAWkFOTs69Gi3aAUCsAXBpXnvtNTQCgFgD4NIUFhbm5uaiHYAIxRpx1kBMvPXWW2iEzgFx1gAA+83qjIwMtANoEcRZA+BM1q9fzxIand7fEyMQOhbEWTtHr3HmAaGj0WhSU+vGg9cajGgQSIcIxRoAEbBu3Tou/cm96vue3miTFgTLr3vPhUvkPQLccd9x+AFwllm9fPly7m/JvXtXQga++M6fvHv0ROM0JdO9//yRatRzUrd8sMaAuQA4h927d1vkfPTxxxkfffTEuBd//HLfV39aXXn3DlqJybT/y696x46WurfzE2INgBPQ6XSLFi2yzi8tLQ0ICBjwwgRINmTasjWEWGnEWQOhs2vXruLiYuv8S5cu1V2ZCgVJ9r/vz269Y0QZEub99ChX3uuefZ/o+fgTrZRpRzg9BB1nDcsaACewdu1am/mnT5+OjY1t0CyzZDdjZZOoqUaO9h75rEdYuKyL14P9eyT/+qcLi3W/l9//m7aq8sap7wuPfkM7ZXOPYE2LR6wRZw0ETU5OTlPflx89enTevHmW+sWT7ON/eodyvOPG+IyK9+j7hLybn+B2X+nl/VjcaPqN/eOyyvt3r32Xc/WbwxcP7JX5du35739wqEwLOs5aqJY1lBoIl2a6bTpy5EiTngGzZPcb+7xMqZTKRBLH5d29B+0U/RLWvKerqlJ4eUE6mjwBcOUA4CJmNVFcXKzRaJrTGk9P0Si1peXoeKUWNBBrADqV999/v/kCV69eRSsBiDUAzqS0tLTFbpvOnTuHhgIQawCcSUBAgNForKioKCgoyM7O5sJP4+PjuTJ79+5FQwFrBPmCUa/XL126NCIiIjk5GYcQCA6VmdDQ0NjYWHYOf/nllxLzlzJFRUU0y+41PzHuRZq64Kc0XECec6tBd8e8vDyBxpIhztqBGA06o+a2RPOzsbzIjsXlj09q7Ya0lYbCgw7ai06ohtS/v8RDJVV4S716uLXppFCQgrdLE1uKy3aiTCNu2h3F2pXjrE2Cdfs7/aXPDVf2dJ5KVt/VHv6D88W6/dXwCpCHJ8iCR8kCotxcuEUg2S4o04izdo5eu6JG5/7FcDMHYmE/VaX6vA/px8xtRfSrsvBEqQzPfwKTbFe2poUbZ43LoAN8HfrT7+tOrm/u3A2f4NA6SBXejt6EQ6th8ynEeO+iyU4/9o5yxNuy0PFSJfp6FoBkw+kBsXZR9NcPa796k+xBy7t3xO/l4YkS1SNSVVAnGIZSrx4e8anOF2u7q2FeylB+w1h8Sn/tcCPtriplrhVFbIoi4mWcci4r2ZBpiLVrU/OQr9RMo6WB0Xhyt+dq9w2W+AabXOTxqYa7F3WnP2i/3x90gmRDpiHWQjj7yXw+9g7ptWLo6/LI2XhU77CG7dGfjHTD8P8wXPqn7uR6qX9/+UCEabqcZEOmIdYtOR9cJs6aLGiPhL9LPFQmqxA4wNaWxSyku6BEV4WHFZeSbIHKNOKs3d0GRCM49o5Izyt4ZHEZyYY1DbFuA+jPGoDOl2wRyDTirJ2j17jGAOgcyRaTNY04awCA6CT7//2XzMe356uvw+kBsQYAuK5k069zRm8BrTooaAIAQJPWHJQaYg0A6EAKCwulZnJy0DsNxNpl0Ov1S5Ys4TpuBwBs376dJVasWIHWaAoSDZIOEhBBPuXg+DWFLu9vNJUPTMbnGK6P0aAzXNkr8ewq7zPWHc9VnW758uXx8fEDBw5MTU0tLS0NCAjgG90qlYpyNBrNmTNn+vXrx82lksXFxYMHD7ZYIZVkQ0HyZ7GxEay3btEH97lz53x9fS0yuTqwAmq1ml9D0Lqz3HmsWbPm8OHD9i1L541D62ao1VRtDqFf9a7nDZV3jMCF0d+5UPW3oabj9behBr1WWJXvkMuQPWVmZmaycdNTUlIsNkHiSJncVb9gwQKtVss9m0ZGRhYUFLDClE9/+RLBrY3KNKMhFRUVtEJuWUrQX8rk6pCUlER/acoV4OZ2JnZLB4kVSZYTTxWh+qwdHSzJjXhivHdRosA7FtfGQ1XXnVZVqf70+27YAGvXrqXp+PHjyRAmXd60aRNJEr8Amc+USWqenZ1NKknWd0xMzN69e0l/SYtJ4jkvyubNm+lvWloaKSklyFonm50McJrVu3fvAh5M/bnRI2fPns26f8g2IzF/gbJt2zauDhkZGX379k1MTKRl6W5BK+fPFY10wLLuVMg6q7PUNodoT74H09X1ocPEjhf96KnIrSxrZk2T/LG/pLNMMS02QcX4ZjiJLL8AKTg3lyD7mv1lsmthqhMlJSVqM8w6pr/MfrfYNW4rrA5crWgp/kYFASxrV8Tk/azv+FTW75doEAE8aUXObjh8t79zq33funUrTWfNmsX+zpw50+ZrxgEDBrAEc0NPnDiRm0WSyhSfmDZtGs0qKioqLCzcuXPnoUOHKPPixYsWLnJahKz1Y8eOseF9NRoNTceMGcMvlpSUlJWVxbfxhw8fzhJsKW6jAC8Y7X1dc2ZznVKHT0B3eoJAqvSWR/yejQemz/2L+7xmJJVMTTUN3UBGHz+fVNLiNaNCUXex+/r60tTf35+bxS9GAs3vzNLCf8144YUXSGfJTObeIubn59M0MTGRX2zkyJEZGRmk+1wxrg7ADmBZW/mFqu6a/NTs3Brymph2TVtdeeWbf332h5cqVw+v/ebPhrJbojKuw+uUwnAzx6itdJPTdffu3ZxHmIPlbNq0iSXUanVrzRSdjik15/f44IMPLMqsXLmS7gRUIDY2lsscNmwYTY8fP84vefToUeiJu4u1Q+OsDaVnG1pHLN2f/nzh1HdbV/09Kfrr9YvuX/vRdFlm/6X6g8lVW5N1eQeMtVViMK4Do93QE8JeLVqEVWi1WibWzAVh4Z1oBqa2ZE0vW7aM5TA3CEdOTg6LEeQKcLY53RK++uorfuaRI0c4j4eLIOg4a1jWVmJ94xvOByICUzo/8+8ZM0dmvpWUn7ndxmNEyeXaPcuq/md07cF1hpLLwhZrmUIe8fu62/mlz93hXCXpzM3NTUpKshBEhUJBlm9xcbGFqdsi/fr1k5hdybRmEvqdO3cy85ysdcopLCyMi4sjKd+/f7/1snPmzKEFaRGdGUpQBahuiKd2a7Fm/Vk7aJgY/ZXMuq2ECNvvWV5SRKb0d1v/q6qs5R7ldSd3VW9NJkNbe3KXcA3tBk+Iewze+P77pjjFuXPnWs+aMWOGpO1fM5KwslA8EuXg4GC6xD755BMWGU05b731FpNypVIp5UG6zLZIJWkRWpAKUIL+btiwwaVajGol3K7w0Z91Y0uz6i4XByJVx7jbrZsMbe3BdfSTDxyviPmVPDhKYDugeqRhXww60X96mmiG7zvmCA0N5fyEpOb8V3+kyDRr5MiRXA6/AFnNZI/v2rVr+PDh48aNo8JkbrO5ISEhFq8QGWxVtEVS7S1btqxbt87f33/mzJl8e9/aaems7iKEG2ct5UIgO593332XTojWO9Q6wwdSfqN25zMs3eXfC4VuWf/j320/HPx2WPfWaZ+/MnamIvIlqYcwPgsiga7Z0pelPaZ9K4hIHrJMJeY4azzmuzhHjhyh29jixYthWbsGtRph1bfqwb2LX+zsVpjVe8SL8rDhsl6DOtKc1NxjhrYsdJjymdkdvHJHCB+/epqfJQi7BCICYt3YNKsP2nPxt4sGva700tnTH6XdyjVFR414TKXL/gv9TDUPHUa2sDzsqY7cXOGJmsITJkP7ySmKJ6dIVd1dtmXowDGHtbG8SKIeilMaQKyB02T67CebyZpu6rUhCWstCSsZ3TLfDt42GdrfbqGfUAxtAMQE4qwbW9Y1D1x83zV3i09/lNqaAA9JVZmjbhhkaP/936rejdV+u1VkX9YAcYM4axHZrcWn6trF/UJB7ICsbPZljf5yjtGgQ4MA4DgE+RjL4qwdGoIj9ezmZB2srvzp0KdnP9k08XG9LHSYPDhaFjRAFjTQBQ+HseRyza43TCfT0KmK6ImywL64roBrkpycTGY14qw7W6/Fej7du/bjpS//wfvgsLuh8ITB7IYmqmpc9wlOd3IX/aSBfZVPz5D3GyWUgD/gVghXOvCCyLUoLyn6/A8vCXoX2CfsMLRdE/a1oU1GjhzJusdrpsy0adO4dE5Ozq5du3r06NG3r+kQT506FZ3qQazFjEGv09257vHIY+LbNWZoC+7LGtH7AZqalZ6ezsS6mTJMrAsLC0eMGFFcXCwx9/rEuqVetGjRwYMHrYdzBBBrwcO+Z6HfxMf1OnN8tDw4Wi/xFtt+1n9ZI9RP2EVHfHz8li1brPP5PS41VYbx1ltvkVKTuDPt1ul0JNMJCQkk3CUlJei5CWItHrTVlYfWvMa+ZzFj+saEOaZra/Ri3Wt9/kH6kaHdJSkNvhEnQmJqMfR4m8qUlpZmZGSo1WrOJaJQKF588UXS7nv37mk0Goi1g0CctROofniPp9RuhuaeoeQKLjxBaz1Z0GRZW7i2Bkb2BwAAIABJREFUSbvnzZvX4m3AuQg6zhqWNQDuBZnGhYWF1vmt19kPPvggLi4uOTn58uXLzz33XHR0tEuNMCBWEGcNgHuRlZUVFhZmnc/v+e/8+fPWMSEhISGsO1aapqWlbdmyZbkZifk145tvvjlx4kQXV23EWTtHr3HVAWAHTFibL5Obm2sdE5KUlMT1nT3PDBnpJ06cOHDgwK5du6g8rfns2bOQDog1AKADGDRoED9c2iY2o0GsreaAgIAXzaxbty44OJiNB2ZzMAQAsQYAdDzNRINoNJozZ84MHz6c/wkMpT/55JO4uDgysSHWEOtOaY6IGUbz0ItSdOSEIwhssW3btvnz5yclJVk4tdmAkCTiaCKIdWcgUw9Fj/U4guLG5stDRovuEeLVV1/dsmVLRkZGaWnpzJkzR44cmZ+fv2PHDsqhuRMnTkQLQ6wb0Ov1S5cujYiIcNAA5wCIGJsvD1sv1gqFIisra9WqVampqZTg8lNSUmbMmOHi0SDp6el5eXkCjSWDZQ2AG1FQUNCaMs1rbkBAwIYNG9atW1dUVMTlINQaYm0DxFkDYB+t+fKllV/HkInt4t8rWiPoOGuhjhQDpQYAuJV0YFgvAACAWAMAAIBYAwAAxBoAAADEuh0IvT9rAIBTEHR/1rCsAQBAACDOGgDgLqA/a+fotSNWayg+aSw3fZQlVcfIfINxcgsOHEHgFOmAWHc2urzthit7KKEc+54ElzqOIAAuA3zWAAAAsQYAAACxBgAAiLXrgjhrAIAdIM4aAACAY0GcNQDAXUB/1s7Ra5x5AAD3kQ64QQAAAGINAAAAYg0AABBrAAAAroIgo0H0ev3SpUsjIiKSk5NxCAWHcvAvOmU7k9HUwIL09PS8vDyBxpLBsgYAAFjWjgFx1oJGe+4LRcTzDlp5bdYCrtc9+eOT0NqAD+KsnaPXOPMAAO4jHXCDAAAAxBoAAADEGgAAINYAAAAg1u0A/VkDAOwA/VkDAABwLIizBgC4C4izdo5e48wDALiPdMANAgAAEGsAAAAdgQJN0Kg5ImYYQ8ZSQqqOcdxWunT1fzRy5K3co+7YxCp/WWC40I8gABBrZz9oqIdK6OdglF28f5HyYdWDexe/2Ek/icQUSCQLHSYPjvaQeEtyV4iybeUDxytifiUPjhLBEQQAYt0qxNGftVc3/yG/mRf1q1d1d657PPJYnaKVFInPlFbGzlREviT18ML1BpyLoPuzhmXtbFteruCUWmyGwNCpiuiJssC+OMoAuKlYizjO2jew96T3/nXpy3/kZ25vwiD3k0geuvIuSAP7Kp+eIe83CqY0cDUEHWctVMtaxHHW/iFPPD1racz0N3469OnZTzZJJHpZyFB5nyGy0GGyR/rpy+5Kjo+FKQ2Au0kH3CAuirKL98CE39FPr62WK7u4uCntMfo12WPDpTKcTgBArN3WEHBhpVY+M1s++EWZ36M4TABArEEjVD3UQ3674OIXO6vK7rRQ1GHebVnoMJJpWa9BMKUBgFiDJoRSrmABf6WXzp7+KM36yxpSUkXkS/Kwp/QaTQd7t1X+yienKJ6cIlV1x4EAAGLdMuKIs26nZD8yIIb7skbx417JUwmeT4xqZO2SWMOUBoAH4qyB02Bf1kgk8xyydnzPAgDEuj2gP2uHt3CnfBoOQCeDOGvn6LUjVmsoPmksN33wLVXHyHyD3e1Ulgb2VURPFLQp7eZHEDhLOiDWnY0ub7vhyh5KKMe+JxH4pe4b2Pt3GWfYlzUtho6I5nsWMR1BACDW7gL3Zc3PF04V5Oy3/oQdn4YDALEGLsQjA2LoFzP9jevfH8r9558lkhJF3CuKyER8zwIAxBq4oqEdPuol+rn+J+wAAAsEOayXXq9fsmRJeno6jp99QKmBe0KiQdJBAgKxBh3PtGnTpFJpVBSi6ABwaxBn7dJoNJqMjAxK5Obmnjt3bvDgwThlAbAbQcdZC9WydpMvYrZt28ae3Wi6detWCx0vLCzU6XSUPmeGpRk5OTkaW5+b0yLWs0pLSwutsChDf2lB/iYs6kBT6wIAQDrcXazdARK+d955R61WT5s2LT4+PjU1lS+gu3fvDgsLW716dVBQUKQZpVLJZHfcuHFxcXE+Pj4rV67kyu/bt08qldIibFZUVBSVZLMWLlwYZgWtn82l2wAVoEVoQdoEpSmHX4eioiJaeXBwMCuwc+dOHDsAINZuxPHjx4uLi+fMmUPp119/nYmjRZnly5ePGTOmoKAgJSWF/pJkjxgxggpnZ2dTmuYyfSfdf+WVV0j3qWRFRQWZ6rm5uevXr2cr2bBhQ0E9lE/FKJO5XEjQaT10n6D1s61QmnL4FjTp9Y4dOw4ePEgbpWXpSRP2NQAdj9F5rFmz5vDhw0ZXoubL+VWbQ+inu/SZ0ytD1jQdoJKSEkprtVqmxdxc5huhMlwOO6CktvwCJKCUJp1lAs0VplXRXBJui40y0U9LS2N/FyxYQH8zMzMttstWxdL8WrHF2UZxBIGYILEiyXJiBWBZuyilpaVZWVmkxQEBAfRXoVCQDrLXjPxiEydO5NJM3AcMGMD+MtP42rVrNA0NDZ02bZqvry9ZyrQGzlNBW+Gvbd++fWSMJyUlzZs3j19g4MCBXJmRI0fS9Ouvv+ZyZs+ezaX79u3LbRQA0IGgP2sXZdOmTcysJpFlOefPn5eYXzNu2LCBEn5+fjT19/fnFuFknf0laeZLP62H1J/9ZY4OC0jEExISSPG3b2/4Kp1ttHfv3lwOSx89epQTdH4dAHBl0J816GB0Oh0T61wz/FmpqamrV69WqVR8a7dFPv74Y1Jq0mhaG9P0qKio4uJivpqPHz+eCpDRzck9MXr0aFrk/v37bCmiqKgIBwiAzkeQbhAWZy1is5q9WkxJSbFwWqWlpUlsvWZskS1bttD0k08+YZqr0Wj49wC6N5DdTVs8ePAgJ8qM559/nqaXLl3icvLz8zkrHgBhQaIh3E80EGftirz22ms0nTFjhkX+zJkzabp27dq2rnDKlCk0XbFiBelyYWEh52WmBOXQhsjuzszMtP7o5tlnn2ULsjg/mrIYEhadAgCkA2LtvpAgktkbGRkZGhpqMUulUiUlJVm/ZmyRyZMn05QUOTg4OCwsrLS0lFnWlPP++++zjyQTEhKkjWFbJHM+Ly+PlgoKCqIppdPT063rBgBwKPBZuyKkhizowprVq1cnJib6+voGBARYFJs7dy7N4v7yC5DJXFJS8vHHH9+7d++5554bPny4QqEgU7qsrCw6Orr5LrHmmcnJydm1a9fUqVNjY2O5WbRyizpY5wAAOgQpF5/b+bz77rukGmPGjHGd5qjNWsCNMyJ/fBLOD8GBIwgcxJEjR44fP7548WK4QQAAAIhLrNGfNQDADtCfNQAAAMeC/qwBAO4C+rN2jl7jzAMAuI90wA0CAAAQawAAAB0BPopp3BwRM4whYykhVccIqNqFhYVHjx5tai7Xbx9Dp9MdP3780KFD/v7+Q4YMiY6OVqlUFouUlpZ+/PHHlGiqAI4gABBrpz5oqIdK6Cc0SKmb6daKL9YrV65cvny5RYGkpCSuh2uS8piYGH43T5GRkadOneJ3xYcjCIATzm0hVhpx1jbJzMwssIWFUqvV6pSUlIqKCq1Wm52dHR8fn5GRwY3WuHr1alJqalutGTa+zObNm9G8QAQgzhq4BAMHDgy1BZvLRoEhab5x48ayZctUKhUZy7GxsZ9//jnJ96efflpaWkpm9cWLF8mUJmNcYWbq1KnMckfzAgA3SJtBnLUd7NixQ2Lu2tTCoUGqffnyZc4rbTE2eU1NDU379++PBgQiQNBx1kL1WUOprWHDAlgQEBDAhJj1g8r6p7agmfeHbKAD1sMqACJAuNKBF4ziISEhwTozPT192rRpbNzbyMjINsV10FJr165NSkqyHpQAAACxBnaSkpLCBhfnw7qW7t69u8Q8omPr13bu3Lnx48dHRETwx88FAECsQXuZMWNGUwO4KBQKtVpdXFxMEtwaM3nfvn1spPP9+/cLJWgPAHGDaBB3gcV1fPbZZ9azdu7cyblKJOYIP1JqstO//PJLKDUAEGv7QZy1HbAhbjdt2kRWs06n4/LJ1k5OTj5y5Ii3tzf9zcnJWb58eVJS0rJly9BoQGQIOs4adpN42L59u7XPWmJ2W7OA67S0tPnz57P3kMzBvW3btqysLInZnc3ePb7//vtsEYsYvokTJwroo3MARIjReaxZs+bw4cP2LUu2oRHU0/xDBs3lSpIoq9Vqbhb7mpEy2dyKioqmVlJQUIB2BiLAbukgsSLJcmLNEWfdCEPxSWN5kcTcDZDMN1gorUFmL/+zcgsCAgK49ODBg2/fvk3na1FREVnK/FmEp6dnU+vp3bu3IJpCoEcQCF064AbpbHR527mxsSXCudRVZtpw1BUKm3EjTeXjCALgdBANAgAAEGsAAAAQawAAgFi7LoizBgDYAfqzBgAA4FjQnzUAwF0QdH/WQrWsodQAALeSDrhBAAAAYg0AAABiDQAAEGsAAAAQ63bQCXHWxpoHTtk1jUZTWFhIUy7N73u6+aWaKsmfy0+Xlpa2cv0AiAPEWYvo3qWOYQlD8anWlCexm2amoyRv9+7dYWFhbExxli4qKmrlUk2V5M/lpxcuXNjK9TfDxo0bpzUBN/QMAKD9IM66EVLPbm0qv379+oyMDEpMnz79xRdfbH8FRo4cSTd/NsptR8HWadEbKjF37tzExESWTxa3j49PQUFBW3vdO3r0KGsBa1avXm29UQCcCOKsnaPXTq8DCVxqampSUhKl6dmqQ9ZJWkk2acf2U8rWad2HamxsLJd/9epV+1a+c+dOiy7SMzMzKT8+Pl7ova0CUYI4a5Eg9a3rYp/1idyi84HZp2ywlcLCQpafk5NDIkhTfuF9+/ZxmaWlpRs3bhw3bpxUKqVM/qCINpflXC4rV66MioqipRYuXGgxlCJRXl5O+UFBQVSGvwa2TmunBPNgsMrQkwHlzJ49m3K4fOvCzJneDLRUQkKCWq3ev38/l0n1pNrS/lLdaD38lbDVSuodSlRzUn9+AVqW6s+1lcVgY9ZwB07q3x/nMxAVAh3Wy0HoH16v2hzCfga9tvnCkZGR1IBarZaUWmIe1ZDll5SUMNPSunBFRQWlaRalFyxYkJaWxvIpwR+giw3ExdJsPC3aCitJW6HCbGgusmH5S7FMWi1LUHn+XLYefpo9E1A6OzubpWnlVID+8neHbZ2/wqagYmzT/DHAuKFnaHFaJ0tz+8ttlw0wxu0j15Jshfy95pa1CXf46FBiCCvQgTh9WC+IdSNIoFt5tVsoGifc1tJsId9MvEikGo6BWWebF2uL+wFbykKO6S/bIlWDJNumQNsUa+sbA79K3M7yx3K0CVuhRTGLTKphpBn+XJpyTcffNOky/aWtczcDi3Zu7l5beQf6AsQk1nCDNHaDyHhvXDU/N1OSjQI+Y8YM9vfNN9+k6cGDB9lfOqg0/frrr9nfjz/+mKYrVqxgHmRqd/7jPElVcXEx50WxyeDBg2mpZcuWcTkkW0zBOaZMmcIc0AqFYurUqZTIz8+3oxFocborUJXOnTvH39mJEyc2s9TGjRszMjJoX5hbg4O9fuQyqYajR4+mmvPdLHPnzqWNWrfG7t27SbhjY2O5is2ePZsSFy5csP2YyMXweAVIvXrgfAZiAnHWVi0SPqFuK1f2NvNqkTSIPZUXmgkJCeG/Znz22Wcl5lgR9nfLli00HT58ON9/zbzPRFPRFNav8vhLWSg1MXToUC7dq1cvmh44cMC+RmA3oa1bt3I7S6Z6M8M8kqzPnz+f7h/bt2+3cGGzRwp+JmuHEydOcDnR0dE2GzkrK4uEW8qDtsI2Z/vEuHa47iVSeAKubWCNoOOsMWCuJfJ+k9hLKn3eh4oRSxvZ2vVs27aNpqQjYWFh/Hz2mpFsZ9I1shBJ40hxKisrKZ9sVWY8klInJCQwn8aOHTt8fX3JYrVWXmu7lelUWloa3QloqREjRlAF+GW6detm/brPvkagXSDlTU1NXbduHXs+mDVrVjMvFcePH08J0lbOQGZ4e3s3tVRZWRmXtnkboHZjLhGqg8WspkIbubeLsuBROJOByECctZVlHfR0w2N1yRmpeqh1mXfeeYdJM4kml3n06NHk5GQyLZmzgh7tSaxJ6VhU3OTJk1kxEmim1KyYTqdrUak525yUet68eczqtFBq4vTp05zH4ObNmzTt39/+iIg1a9bQTeX48eP0fECKOXjwYJvFqP5k71NlMjMzraOqSYXJrCYR52devnyZpn5+fnwj2lqv2dpozVOnTrW4B9hW6rsXGw5iQBSubWAN4qydo9cOWrNU6S3rFduMJyQnJ4cUZMGCBaRfoTxIU0jUli9fziLq2MP+gQMHSGfJSuXEjlm7zz33HPvLublb418eMmQIS7CoQVYZbi5lcsF8hw4dsnCMtAYm8QxmLL/22msktW+//XZTi6xevZoKUGs09U0Q83Rzjguq4bfffkuJYcOGtfgEwPwndMPgNH3hwoUWwX8Nt43TH9QdQf/+cFiDzpcOiLUzDmfkK3VinfehUVtpMZe9bbN2C5D1N2fOHE5/2Wu61NRUMpzZazHG66+/TtO4uDgSnaioKLJeWeQGJZpyxUrMEdD8pRYtWsTC4CiHWyovLy84OJgVoHsG3TmY4LYG5lggaebCnFn9mdU/c+bMphwgtCF2p7H+3JxqQrMSExMl5tehlLNy5UqqIRP31nzcyJ4naB/Z2nx8fKg9f/rpJ2sz3FB+g/OBKKJfxTkMRAhC92wE8NVquAgw7cn3+LNYEF5TEccWczn/BhfDx+LPWFgxsxypDGWSeCUlJWVmZjYVukdr4JaikrQUrSfJDLcUFy5NxSiHi29rTegewQVBczms/vwoQwu4GGqbcAtSTWi7XAw1Pwrbog7WObQs7SBblkVq24zbo8NUd8j+NrTFAHkAhBi6J2WRrU7h3XffHT58+JgxY1zwHqY7tUF3si6Ww2PatzLf4I7fhE7XGlesHUvZt2ZryBAmw5nuAZwr3Cm73OKy9PRT89eBLK0c+5788UkwwkCHc+TIkePHjy9evBhuEBfzhAyZK/EyP6fTtFbjiE3YJ1utWar9Sq3RaHJyckipyZjlIg6dtcstL6ur4j4ul4WOx9kLRIkgo0H0ev3SpUsjIiKSk5MdtAmpTKEcvVZS81AWnmgzek/EFBYWspBEtVptHY3ngki9enhM2avPN3l4pEpvXNWgKdLT0/Py8hwXSwaxdpJx3Wese+54QEAAndMhISHR0dHNfAjjWnotUygiXsZJC2BZu5iMOjLOGpBAW3wyDoA4QJy1c/QaZx4AwH2kAy8YAQAAYg0AAABiDQAAEGsAAAAQ63bg0P6sAQBiRdD9WcOybi/GqrvWnT2BDsTUSROv+1MA3BPEWbdPqQ262r3JxnsXFUNfl/X7pSO6EHHrG6G2Up+7xdRJi1eA5/Rj7vYpKehwBB1nLdSz30WaW5+fTkpNCZOgnFwvC5+gGPKarEd/XBXtvAUaS87or+zV531Yl1VVariyFz00AdFIhxuJtYs+sF/ZU2vuVZlUWx4yVqqOga3dBoHW3JZofm6k0RxeARLPrmgl4M5ArNvXfBEvy5/4taHwoPbYO2T98VWb6wtfwhuEV6aOkXp2a60J0GpD0qitpDo4yhJxTDWMNQ8M9YOR89vKRiMPfV0+ZC58IABiDdqFVOlNciYLT6TndN2ZzcwrYm1xt0aV7FfJ6rvaw39wvlh3aDVkvWLlka/Igp5GR3oAQKw7TrJlChI1+hmr7hpKzxpufKO/ksm3tUFrNTp8grzfJGg0AGIQ607oz9p+1fbqIe8zln7K2BWmqD5dpaRWw8xt/oN/B29U4c15Wpy5722sBucUkvr2lqgekaqC4OsADgX9WYMmhVsqMQ+zzcWHOKbPZVPv+/GprrC/rlANAGBZuwrozxoAYAfoz9o5eo0zDwDgPtKBz80BAABiDQAAAGINAAAQawAAABDrdoD+rEFrKDSDdgAcgu7PGnHWQLSEhYXR1Gg0oimACECcNRCzGYVGAHzQn7Vz9BpnHmieadOmoRGAaKQDLxiBa8nrxo0bz507R4mFCxeyTI1Gs3PnzqioqKCgIMqnufxFaO7KlStpLsunxTmNnmaGX5LmRpnZt2+fTqez2C4lcnJyaCvjxo2jBL8AAM7H6DzWrFlz+PBhIwD10AmpNkOJlJQUysnOzmaZaWbYSZubm8vKc44OKkxlkpKS+Gc1P80tm2TGYj2UjoyMpHya0qrYXNo0jgjgILEiyXLm1QGxBi4l1sSCBQu0Wi3LIQElFS4pKWF/KcGElf1lys7m0iK0oE2xrqioYIpfUFDAZlGCux9wJUnQ+XNpbTgiwHXEWsBuEL1eX11djWcj8TFr1iyFwvQ2RafTZWRkTJ06NSAggM2iRHx8PFnEpaWlGo2muLh4zJgxbC4tQgvaXCEVpimVDA0NZTmUIO3+9NNP+cVmzpzJEr1796bprl27cCzERFlZmUCD9gTvs166dCldXdBr8TF48GCWuHDhAk1TU1OlPLKyspgD+urVq5QYOXIkt+Bjjz1mc4VHjx61KMm0m4k++0v3AJVKxdLsVkF3AhwL0UBCMWfOHBIN4e6CgOOsp0+ffubMmS5duuBEFCsPHz5kMsrZvBxkTd+8eZMS/v7+La4nJCSkqZIk+sww54x3IEpIKJKSksLDwyHWTmCQGZyFIqZXr14sYTMIr1+/fjTdu3cvN5fZ2tZER0dblCSOHDkCjXYrJkyYIOj6I3QPuC69e/dWq9VZWVlk/7KcwsJCLsyO6ez58+fZXJ1Ot3XrVmaJW6xHpVJRJqkztx7m746MjORcHwBArAGw97lPoVi3bh0lfHx8Vq5cuXDhwrCwsIyMDM6hkZKSkpuby+YGBwf36NGjKWN55syZpM6sJMk9JSjzgw8+QCMDiDUAHQAJa0VFRVpa2qZNm1JTU8lATk9P57wZy5YtKygoSEpK+vbbb48dO0Z/m1lPSUkJiTuth4xxWgmtNjY2livAvWkEwEVtFzQBcB1sdrqkUqnmmdHpdCxOgw/Z0Tt37uQLbmJios21UUlS87feest6JdbbRfdPAJZ1xyPobg9BGywLK5EdN26cj49PTk6OxOyzXrVqFSUmTpzYppUAESOm7pRx4gIBs3///hdeeCEuLo7LSUlJwTtDIE5jRQT7IOhuD0E7bW3Sa/ap4b1794YMGcJ3QwMgpu6UFaI5JDgv3Vav0RUqcAdxQDQIAABArFuivLwcxwAA4Po4XaycKdYDBw7Mz8/v8NWmp6efP38e5xYA7gld/o4IDyOxIslyU7H29fXt8HVWV1fv3bt3x44dOGUBcE/OnDlTWFio1WoFIVmtR2yhe126dNm2bZtSqcQpC4B7kpycPGXKFPH1x+lMy1qlUl27ds0Reo3gEADcGUcoNYmVc0P4nSnWffr0YeMnORq9GZzBAIiPTru6SaxIstxUrP38/CTmsXYcfSyXmsFpDYD4YFe3o/WayRSTLGfhTJ81Pap079795s2bDm0CuVweERGBcxoAUcKubkd7PkmmSKyc6weXOrd3sU2bNnXt2jU5OdkpW6+ursaoYAAIBSdesOnp6Q8fPpwzZ44Td9/JH8XExMTs3bvXKZves2fPzJkzHe2EAQB0lFLTBeus/vNIpkisnNsCThbryMjI+/fvO2UY6fDw8NDQUIvAyaY6VGxrPt0DkpKSrL/NaSqfcijf+s7R1vymeou1mY+d6sCd7ahGcKkj6JSdaipfqVT+//buHaSVLA7gsKuljXaCoKYLBnwgWAbBVrS1ULCSGNIEC5uUAUllI2qvljb2NpaC+CjELigIdgZESCPcPzfsZXHZy7IsyUn8vkLCWDgzSX7zSDwn3rCt6TTbLAIVmYpYfetYx0XN7OzsxcVF+/90Lpfb3d31JT/oCvFWjTdsR+bIjkBFpjp+y/SPjs+IEUfjarV6cnKSSDf/abTVnlxuo2xsdy3vSBDW1tYqlUpHjhMJnVmHbDYbPy8vL9M5gH+f5TbKxnbX8vZrpamVqe8e63hWyuVyrVZrNpuu9YB0RJQiTRGoFA4eSYxnPT8/n8lkzs7OvDiAdESUIk0RqBRWJpXJB0ql0vHxsS/SAYmIHEWUIk2JrE8qsc7lcgsLC0dHR14iQAoiRxGljn+umFysQ6FQuLu7641J44GuFiGKHEWU0lmlhGI9NDRUqVTiusM8L0AHRYIiRJGjzo7clG6s+37eDCkWi9vb2x35n0aAiE8kKEKUzg2QFGMdlpeXV1ZWyuWyDxuBNovsRHwiQRGi1NatP8H9tbm5OTExsbW15fwaaOc5dWQn4hMJSnD1Uoz1wMBAtVrN5/MbGxvuXwNtEKmJ4ER2Ij5pDhnU+bFBfuP8/Pzg4GB9fb1TA14D38Hp6enx8XGxWEzw7kd3xLrvz2GepqenC4VCUp/MAj2g0WgcHR3d3d2lMFTT7/Unvitj9x0eHsaD1dXVOPoZPwT4X0RMIikRlr6fU1YlXuouOLP+6yn2/v5+vV7f2dnJ5/PGoQb+m8/Pz8vLy1qtlslkSqVS+pnusli3XF1d7e3txYOlpaXFxcWRkRGvPOBfen19vbi4aE0lWC6XExmhqTdj3ToqPj4+npyc3NzcDA8PR7VnZmZGR0fd0Qb+rtFovLy83N7eRqPf3t5mZ2fX1tay2WzXXZ13X6x/aTab9/f319fXcUUTz0EsiYua8fHx1m8nJye/zK8I9Lz39/eHh4fW46enp3q9Hg/irC6fz8/NzU1NTXV8dq7vGOsv4Y7j5/Pz88fHx5cnDPhWfp2oDQ4Ojo2NxTV39wa6B2MN0Nv67QIAsQZArAHEGgCxBkCsAcQaALEGQKwBxBoAsQYQawDEGgCxBhBrAMQaALEGEGtY+P1zAAAAVUlEQVQAxBoAsQYQawDEGkCsARBrAMQaQKwBEGsAxBpArAEQawCxBkCsARBrALEGQKwBEGsAsQZArAEQawCxBkCsAcQaALEGQKwBxBoAsQZArAG6zw9c70nBOpvCygAAAABJRU5ErkJggg==;" vertex="1" parent="1">
                    <mxGeometry x="50" y="280" width="174.48" height="230" as="geometry"/>
                </mxCell>
                <mxCell id="28" value="" style="edgeStyle=none;html=1;exitX=0.286;exitY=0.99;exitDx=0;exitDy=0;exitPerimeter=0;" edge="1" parent="1" source="15">
                    <mxGeometry relative="1" as="geometry">
                        <mxPoint x="268.0050000000001" y="234" as="sourcePoint"/>
                        <mxPoint x="230" y="360" as="targetPoint"/>
                    </mxGeometry>
                </mxCell>
                <mxCell id="29" value="FSX(Windows File Server)" style="ellipse;whiteSpace=wrap;html=1;fillColor=#6a00ff;fontColor=#ffffff;strokeColor=#3700CC;" vertex="1" parent="1">
                    <mxGeometry x="530" y="-250" width="140" height="90" as="geometry"/>
                </mxCell>
                <mxCell id="30" value="" style="endArrow=classic;html=1;" edge="1" parent="1" target="29">
                    <mxGeometry width="50" height="50" relative="1" as="geometry">
                        <mxPoint x="500" y="40" as="sourcePoint"/>
                        <mxPoint x="460" y="110" as="targetPoint"/>
                    </mxGeometry>
                </mxCell>
                <mxCell id="31" value="Amazon FSx for Windows File Server &#10;para aplicaciones basadas en Windows &#10;y Amazon FSx for Lustre para cargas &#10;de trabajo de cómputo intensivo" style="text;html=1;strokeColor=none;fillColor=none;align=center;verticalAlign=middle;whiteSpace=wrap;rounded=0;" vertex="1" parent="1">
                    <mxGeometry x="700" y="-320" width="140" height="120" as="geometry"/>
                </mxCell>
                <mxCell id="32" value="" style="edgeStyle=none;html=1;entryX=0;entryY=0.25;entryDx=0;entryDy=0;exitX=0.964;exitY=0.322;exitDx=0;exitDy=0;exitPerimeter=0;" edge="1" parent="1" source="29" target="31">
                    <mxGeometry relative="1" as="geometry">
                        <mxPoint x="630" y="-112" as="sourcePoint"/>
                        <mxPoint x="370" y="501" as="targetPoint"/>
                    </mxGeometry>
                </mxCell>
                <mxCell id="33" value="" style="shape=image;verticalLabelPosition=bottom;labelBackgroundColor=default;verticalAlign=top;aspect=fixed;imageAspect=0;image=https://d2908q01vomqb2.cloudfront.net/e1822db470e60d090affd0956d743cb0e7cdf113/2020/02/26/Figure-1-reference-architecture-connecting-a-Windows-client-to-an-Amazon-FSx-file-system-over-AWS-Direct-Connect.png;" vertex="1" parent="1">
                    <mxGeometry x="450" y="-560" width="372.76" height="200" as="geometry"/>
                </mxCell>
                <mxCell id="35" value="" style="edgeStyle=none;html=1;exitX=0.407;exitY=-0.011;exitDx=0;exitDy=0;exitPerimeter=0;" edge="1" parent="1" source="29" target="33">
                    <mxGeometry relative="1" as="geometry">
                        <mxPoint x="600" y="-260" as="sourcePoint"/>
                        <mxPoint x="636.96" y="470" as="targetPoint"/>
                    </mxGeometry>
                </mxCell>
                <mxCell id="36" value="S3" style="ellipse;whiteSpace=wrap;html=1;fillColor=#6a00ff;fontColor=#ffffff;strokeColor=#3700CC;" vertex="1" parent="1">
                    <mxGeometry x="58.5" y="-250" width="133" height="100" as="geometry"/>
                </mxCell>
                <mxCell id="38" value="" style="endArrow=classic;html=1;entryX=0.684;entryY=0.96;entryDx=0;entryDy=0;entryPerimeter=0;" edge="1" parent="1" source="3" target="36">
                    <mxGeometry width="50" height="50" relative="1" as="geometry">
                        <mxPoint x="380" y="540" as="sourcePoint"/>
                        <mxPoint x="250" y="-140" as="targetPoint"/>
                    </mxGeometry>
                </mxCell>
                <mxCell id="39" value="es un servicio de almacenamiento&#10;a nivel de objeto" style="text;html=1;strokeColor=none;fillColor=none;align=center;verticalAlign=middle;whiteSpace=wrap;rounded=0;" vertex="1" parent="1">
                    <mxGeometry x="279.5" y="-250" width="113.5" height="80" as="geometry"/>
                </mxCell>
                <mxCell id="40" value="" style="endArrow=classic;html=1;entryX=0;entryY=0.5;entryDx=0;entryDy=0;" edge="1" parent="1" target="39">
                    <mxGeometry width="50" height="50" relative="1" as="geometry">
                        <mxPoint x="191.5" y="-210" as="sourcePoint"/>
                        <mxPoint x="241.5" y="-260" as="targetPoint"/>
                    </mxGeometry>
                </mxCell>
                <mxCell id="41" value="" style="shape=image;verticalLabelPosition=bottom;labelBackgroundColor=default;verticalAlign=top;aspect=fixed;imageAspect=0;image=https://d2908q01vomqb2.cloudfront.net/887309d048beef83ad3eabf2a79a64a389ab1c9f/2017/07/07/IAMS3-1260x521.png;" vertex="1" parent="1">
                    <mxGeometry x="10" y="-530" width="411.16" height="170" as="geometry"/>
                </mxCell>
                <mxCell id="42" value="" style="endArrow=classic;html=1;entryX=0.25;entryY=1;entryDx=0;entryDy=0;" edge="1" parent="1" target="41">
                    <mxGeometry width="50" height="50" relative="1" as="geometry">
                        <mxPoint x="130" y="-250" as="sourcePoint"/>
                        <mxPoint x="180" y="-300" as="targetPoint"/>
                    </mxGeometry>
                </mxCell>
            </root>
        </mxGraphModel>
    </diagram>
</mxfile>